<svg width="726" height="726" viewBox="0 0 726 726" fill="none" xmlns="http://www.w3.org/2000/svg">
<g clip-path="url(#clip0_1034_3058)">
<path d="M725.67 0H0V725.67H725.67V0Z" fill="#963132"/>
<path d="M720 379.82V289.09V170.06L725.67 175.76V504.54L720 498.86V379.82Z" fill="#003EB0"/>
<path d="M697.32 147.39L708.66 158.78V277.78V368.46V487.54L697.32 476.18V357.15V266.42V147.39Z" fill="#003EB0"/>
<path d="M674.65 124.71L685.98 136.1V255.1V345.79V464.87L674.65 453.5V334.48V243.74V124.71Z" fill="#003EB0"/>
<path d="M651.97 102.08L651.99 102.06L663.31 113.43V232.43V323.11V442.19L651.97 430.82V311.8V221.06V102.08Z" fill="#003EB0"/>
<path d="M629.29 124.75L640.63 113.41V209.75V300.43V419.52L629.29 408.15V289.13V198.38V124.75Z" fill="#003EB0"/>
<path d="M606.61 56.6899L617.95 68.0699V79.3899L606.61 90.6999V56.6899Z" fill="#003EB0"/>
<path d="M606.61 147.43L617.95 136.09V187.08V277.75V396.85L606.61 385.47V266.45V175.71V147.43Z" fill="#003EB0"/>
<path d="M583.94 34.0098L595.28 45.3998V102.06L583.94 113.38V34.0098Z" fill="#003EB0"/>
<path d="M595.28 158.76V164.4V255.08V374.17L583.94 362.79V243.78V170.1L595.28 158.76Z" fill="#003EB0"/>
<path d="M572.6 181.44V232.4V351.5L561.26 340.12V221.1V192.78L572.6 181.44Z" fill="#003EB0"/>
<path d="M561.26 130.35V11.3398L572.6 22.7198V124.74L561.26 136.05V130.35Z" fill="#003EB0"/>
<path d="M549.92 209.72V328.82L538.58 317.44V215.45L549.92 204.11V209.72Z" fill="#003EB0"/>
<path d="M549.92 119.06V147.41L538.58 158.73V107.67V0H549.88L549.92 0.04V119.06Z" fill="#003EB0"/>
<path d="M527.24 306.15L515.91 294.76V238.13L527.24 226.79V306.15Z" fill="#003EB0"/>
<path d="M527.24 170.09L515.91 181.4V175.75V85V0H527.24V96.38V170.09Z" fill="#003EB0"/>
<path d="M504.57 283.47L493.23 272.08V260.8L504.57 249.46V283.47Z" fill="#003EB0"/>
<path d="M504.57 164.37V192.76L493.23 204.08V153.08V62.32V0H504.57V73.71V164.37Z" fill="#003EB0"/>
<path d="M481.89 141.69V215.43L470.55 226.75V130.4V39.64V0H481.89V51.03V141.69Z" fill="#003EB0"/>
<path d="M459.21 119.01V238.11L459.2 238.12L447.87 226.73V107.73V16.97V0H459.21V28.36V119.01Z" fill="#003EB0"/>
<path d="M436.54 96.34V215.45L425.2 204.05V85.06V0H436.54V5.68V96.34Z" fill="#003EB0"/>
<path d="M413.86 0V73.66V192.77L402.52 181.38V62.38V0H413.86Z" fill="#003EB0"/>
<path d="M391.18 0V50.98V170.1L379.84 158.7V39.71V0H391.18Z" fill="#003EB0"/>
<path d="M368.5 0V28.3V147.43L357.17 136.02V17.03V0H368.5Z" fill="#003EB0"/>
<path d="M345.83 5.63V124.75L334.49 113.34V0H345.83V5.63Z" fill="#003EB0"/>
<path d="M323.15 102.08L311.81 90.67V0H323.15V102.08Z" fill="#003EB0"/>
<path d="M300.47 79.4L289.13 67.99V0H300.47V79.4Z" fill="#003EB0"/>
<path d="M277.8 56.73L266.46 45.31V0H277.8V56.73Z" fill="#003EB0"/>
<path d="M255.12 34.05L243.78 22.64V0H255.12V34.05Z" fill="#003EB0"/>
<path d="M232.44 11.38L221.14 0H232.44V11.38Z" fill="#003EB0"/>
<path d="M5.67 379.82V289.09V170.06L0 175.76V504.54L5.67 498.86V379.82Z" fill="#003EB0"/>
<path d="M28.35 147.39L17.01 158.78V277.78V368.46V487.54L28.35 476.18V357.15V266.42V147.39Z" fill="#003EB0"/>
<path d="M51.0199 124.71L39.6899 136.1V255.1V345.79V464.87L51.0199 453.5V334.48V243.74V124.71Z" fill="#003EB0"/>
<path d="M73.7001 102.08L73.6801 102.06L62.3601 113.43V232.43V323.11V442.19L73.7001 430.82V311.8V221.06V102.08Z" fill="#003EB0"/>
<path d="M96.38 124.75L85.04 113.41V209.75V300.43V419.52L96.38 408.15V289.13V198.38V124.75Z" fill="#003EB0"/>
<path d="M119.06 56.6899L107.72 68.0699V79.3899L119.06 90.6999V56.6899Z" fill="#003EB0"/>
<path d="M119.06 147.43L107.72 136.09V187.08V277.75V396.85L119.06 385.47V266.45V175.71V147.43Z" fill="#003EB0"/>
<path d="M141.73 34.0098L130.39 45.3998V102.06L141.73 113.38V34.0098Z" fill="#003EB0"/>
<path d="M130.39 158.76V164.4V255.08V374.17L141.73 362.79V243.78V170.1L130.39 158.76Z" fill="#003EB0"/>
<path d="M153.07 181.44V232.4V351.5L164.41 340.12V221.1V192.78L153.07 181.44Z" fill="#003EB0"/>
<path d="M164.41 130.35V11.3398L153.07 22.7198V124.74L164.41 136.05V130.35Z" fill="#003EB0"/>
<path d="M175.75 209.72V328.82L187.09 317.44V215.45L175.75 204.11V209.72Z" fill="#003EB0"/>
<path d="M175.75 119.06V147.41L187.09 158.73V107.67V0H175.79L175.75 0.04V119.06Z" fill="#003EB0"/>
<path d="M198.43 306.15L209.76 294.76V238.13L198.43 226.79V306.15Z" fill="#003EB0"/>
<path d="M198.43 170.09L209.76 181.4V175.75V85V0H198.43V96.38V170.09Z" fill="#003EB0"/>
<path d="M221.1 283.47L232.44 272.08V260.8L221.1 249.46V283.47Z" fill="#003EB0"/>
<path d="M221.1 164.37V192.76L232.44 204.08V153.08V62.32V0H221.1V73.71V164.37Z" fill="#003EB0"/>
<path d="M243.78 141.69V215.43L255.12 226.75V130.4V39.64V0H243.78V51.03V141.69Z" fill="#003EB0"/>
<path d="M266.46 119.01V238.11V238.12L277.8 226.73V107.73V16.97V0H266.46V28.36V119.01Z" fill="#003EB0"/>
<path d="M289.13 96.34V215.45L300.47 204.05V85.06V0H289.13V5.68V96.34Z" fill="#003EB0"/>
<path d="M311.81 0V73.66V192.77L323.15 181.38V62.38V0H311.81Z" fill="#003EB0"/>
<path d="M334.49 0V50.98V170.1L345.83 158.7V39.71V0H334.49Z" fill="#003EB0"/>
<path d="M357.17 0V28.3V147.43L368.5 136.02V17.03V0H357.17Z" fill="#003EB0"/>
<path d="M379.84 5.63V124.75L391.18 113.34V0H379.84V5.63Z" fill="#003EB0"/>
<path d="M402.52 102.08L413.86 90.67V0H402.52V102.08Z" fill="#003EB0"/>
<path d="M425.2 79.4L436.54 67.99V0H425.2V79.4Z" fill="#003EB0"/>
<path d="M447.87 56.73L459.21 45.31V0H447.87V56.73Z" fill="#003EB0"/>
<path d="M470.55 34.05L481.89 22.64V0H470.55V34.05Z" fill="#003EB0"/>
<path d="M493.23 11.38L504.53 0H493.23V11.38Z" fill="#003EB0"/>
<path d="M720 345.85V436.58V555.61L725.67 549.91V221.13L720 226.81V345.85Z" fill="#003EB0"/>
<path d="M697.32 578.28L708.66 566.89V447.89V357.21V238.13L697.32 249.49V368.52V459.25V578.28Z" fill="#003EB0"/>
<path d="M674.65 600.96L685.98 589.57V470.57V379.88V260.8L674.65 272.17V391.19V481.93V600.96Z" fill="#003EB0"/>
<path d="M651.97 623.59L651.99 623.61L663.31 612.24V493.24V402.56V283.48L651.97 294.85V413.87V504.61V623.59Z" fill="#003EB0"/>
<path d="M629.29 600.92L640.63 612.26V515.92V425.24V306.15L629.29 317.52V436.54V527.29V600.92Z" fill="#003EB0"/>
<path d="M606.61 668.98L617.95 657.6V646.28L606.61 634.97V668.98Z" fill="#003EB0"/>
<path d="M606.61 578.24L617.95 589.58V538.59V447.92V328.82L606.61 340.2V459.22V549.96V578.24Z" fill="#003EB0"/>
<path d="M583.94 691.66L595.28 680.27V623.61L583.94 612.29V691.66Z" fill="#003EB0"/>
<path d="M595.28 566.91V561.26V470.59V351.5L583.94 362.88V481.89V555.57L595.28 566.91Z" fill="#003EB0"/>
<path d="M572.6 544.23V493.27V374.17L561.26 385.55V504.57V532.89L572.6 544.23Z" fill="#003EB0"/>
<path d="M561.26 595.32V714.33L572.6 702.95V600.93L561.26 589.62V595.32Z" fill="#003EB0"/>
<path d="M549.92 515.95V396.85L538.58 408.23V510.22L549.92 521.56V515.95Z" fill="#003EB0"/>
<path d="M549.92 606.61V578.26L538.58 566.94V617.99V725.67H549.88L549.92 725.63V606.61Z" fill="#003EB0"/>
<path d="M527.24 419.52L515.91 430.91V487.54L527.24 498.88V419.52Z" fill="#003EB0"/>
<path d="M527.24 555.59L515.91 544.27V549.92V640.67V725.67H527.24V629.29V555.59Z" fill="#003EB0"/>
<path d="M504.57 442.2L493.23 453.58V464.87L504.57 476.21V442.2Z" fill="#003EB0"/>
<path d="M504.57 561.3V532.91L493.23 521.59V572.59V663.35V725.67H504.57V651.96V561.3Z" fill="#003EB0"/>
<path d="M481.89 583.98V510.24L470.55 498.92V595.26V686.03V725.67H481.89V674.64V583.98Z" fill="#003EB0"/>
<path d="M459.21 606.66V487.56L459.2 487.55L447.87 498.94V617.94V708.7V725.67H459.21V697.31V606.66Z" fill="#003EB0"/>
<path d="M436.54 629.33V510.22L425.2 521.62V640.61V725.67H436.54V719.99V629.33Z" fill="#003EB0"/>
<path d="M413.86 725.67V652.01V532.89L402.52 544.29V663.29V725.67H413.86Z" fill="#003EB0"/>
<path d="M391.18 725.67V674.69V555.57L379.84 566.97V685.96V725.67H391.18Z" fill="#003EB0"/>
<path d="M368.5 725.67V697.36V578.25L357.17 589.65V708.64V725.67H368.5Z" fill="#003EB0"/>
<path d="M345.83 720.04V600.92L334.49 612.33V725.67H345.83V720.04Z" fill="#003EB0"/>
<path d="M323.15 623.59L311.81 635V725.67H323.15V623.59Z" fill="#003EB0"/>
<path d="M300.47 646.27L289.13 657.68V725.67H300.47V646.27Z" fill="#003EB0"/>
<path d="M277.8 668.94L266.46 680.36V725.67H277.8V668.94Z" fill="#003EB0"/>
<path d="M255.12 691.62L243.78 703.03V725.67H255.12V691.62Z" fill="#003EB0"/>
<path d="M232.44 714.29L221.14 725.67H232.44V714.29Z" fill="#003EB0"/>
<path d="M5.67 345.85V436.58V555.61L0 549.91V221.13L5.67 226.81V345.85Z" fill="#003EB0"/>
<path d="M28.35 578.28L17.01 566.89V447.89V357.21V238.13L28.35 249.49V368.52V459.25V578.28Z" fill="#003EB0"/>
<path d="M51.0199 600.96L39.6899 589.57V470.57V379.88V260.8L51.0199 272.17V391.19V481.93V600.96Z" fill="#003EB0"/>
<path d="M73.7001 623.59L73.6801 623.61L62.3601 612.24V493.24V402.56V283.48L73.7001 294.85V413.87V504.61V623.59Z" fill="#003EB0"/>
<path d="M96.38 600.92L85.04 612.26V515.92V425.24V306.15L96.38 317.52V436.54V527.29V600.92Z" fill="#003EB0"/>
<path d="M119.06 668.98L107.72 657.6V646.28L119.06 634.97V668.98Z" fill="#003EB0"/>
<path d="M119.06 578.24L107.72 589.58V538.59V447.92V328.82L119.06 340.2V459.22V549.96V578.24Z" fill="#003EB0"/>
<path d="M141.73 691.66L130.39 680.27V623.61L141.73 612.29V691.66Z" fill="#003EB0"/>
<path d="M130.39 566.91V561.26V470.59V351.5L141.73 362.88V481.89V555.57L130.39 566.91Z" fill="#003EB0"/>
<path d="M153.07 544.23V493.27V374.17L164.41 385.55V504.57V532.89L153.07 544.23Z" fill="#003EB0"/>
<path d="M164.41 595.32V714.33L153.07 702.95V600.93L164.41 589.62V595.32Z" fill="#003EB0"/>
<path d="M175.75 515.95V396.85L187.09 408.23V510.22L175.75 521.56V515.95Z" fill="#003EB0"/>
<path d="M175.75 606.61V578.26L187.09 566.94V617.99V725.67H175.79L175.75 725.63V606.61Z" fill="#003EB0"/>
<path d="M198.43 419.52L209.76 430.91V487.54L198.43 498.88V419.52Z" fill="#003EB0"/>
<path d="M198.43 555.59L209.76 544.27V549.92V640.67V725.67H198.43V629.29V555.59Z" fill="#003EB0"/>
<path d="M221.1 442.2L232.44 453.58V464.87L221.1 476.21V442.2Z" fill="#003EB0"/>
<path d="M221.1 561.3V532.91L232.44 521.59V572.59V663.35V725.67H221.1V651.96V561.3Z" fill="#003EB0"/>
<path d="M243.78 583.98V510.24L255.12 498.92V595.26V686.03V725.67H243.78V674.64V583.98Z" fill="#003EB0"/>
<path d="M266.46 606.66V487.56V487.55L277.8 498.94V617.94V708.7V725.67H266.46V697.31V606.66Z" fill="#003EB0"/>
<path d="M289.13 629.33V510.22L300.47 521.62V640.61V725.67H289.13V719.99V629.33Z" fill="#003EB0"/>
<path d="M311.81 725.67V652.01V532.89L323.15 544.29V663.29V725.67H311.81Z" fill="#003EB0"/>
<path d="M334.49 725.67V674.69V555.57L345.83 566.97V685.96V725.67H334.49Z" fill="#003EB0"/>
<path d="M357.17 725.67V697.36V578.25L368.5 589.65V708.64V725.67H357.17Z" fill="#003EB0"/>
<path d="M379.84 720.04V600.92L391.18 612.33V725.67H379.84V720.04Z" fill="#003EB0"/>
<path d="M402.52 623.59L413.86 635V725.67H402.52V623.59Z" fill="#003EB0"/>
<path d="M425.2 646.27L436.54 657.68V725.67H425.2V646.27Z" fill="#003EB0"/>
<path d="M447.87 668.94L459.21 680.36V725.67H447.87V668.94Z" fill="#003EB0"/>
<path d="M470.55 691.62L481.89 703.03V725.67H470.55V691.62Z" fill="#003EB0"/>
<path d="M493.23 714.29L504.53 725.67H493.23V714.29Z" fill="#003EB0"/>
<path d="M5.67 0H0V28.38L5.67 34.05V0Z" fill="#00F5D7"/>
<path d="M28.35 56.73V0H28.34H17.01V45.39L28.35 56.73Z" fill="#00F5D7"/>
<path d="M51.0199 22.6801L39.6899 11.3701V68.0601L51.0199 79.4001V22.6801Z" fill="#00F5D7"/>
<path d="M73.7001 45.35L62.3601 34.04V90.74L73.6801 102.06L73.7001 102.04V45.35Z" fill="#00F5D7"/>
<path d="M73.6999 102.04L73.6799 102.06L73.6999 102.08V102.04Z" fill="#00F5D7"/>
<path d="M96.38 68.0302L85.04 56.7202V90.7502L96.38 79.3602V68.0302Z" fill="#00F5D7"/>
<path d="M96.38 79.3599L85.04 90.7499V113.41L96.38 124.75V79.3599Z" fill="#00F5D7"/>
<path d="M119.06 90.7001L107.72 79.3901V136.09L119.06 147.43V90.7001Z" fill="#00F5D7"/>
<path d="M141.73 153.03V113.38L130.39 102.06V158.76L141.73 170.1V153.03Z" fill="#00F5D7"/>
<path d="M164.41 192.78V136.05L153.07 124.74V141.73V181.44L164.41 192.78Z" fill="#00F5D7"/>
<path d="M175.75 147.41V204.11L187.09 215.45V198.43V158.73L175.75 147.41Z" fill="#00F5D7"/>
<path d="M198.43 187.04V226.79L209.76 238.13V181.4L198.43 170.09V187.04Z" fill="#00F5D7"/>
<path d="M221.1 249.46L232.44 260.8V204.08L221.1 192.76V249.46Z" fill="#00F5D7"/>
<path d="M243.78 272.14L255.12 283.48V249.41L243.78 260.8V272.14Z" fill="#00F5D7"/>
<path d="M243.78 260.8L255.12 249.41V226.75L243.78 215.43V260.8Z" fill="#00F5D7"/>
<path d="M266.46 294.81L277.8 306.15V249.43L266.46 238.12V294.81Z" fill="#00F5D7"/>
<path d="M289.13 317.49L300.47 328.83V272.1L289.13 260.78V317.49Z" fill="#00F5D7"/>
<path d="M311.81 340.16L323.15 351.5V294.78L311.81 283.45V340.16Z" fill="#00F5D7"/>
<path d="M334.49 362.84L345.83 374.18V317.45L334.49 306.13V362.84Z" fill="#00F5D7"/>
<path d="M357.17 385.51L368.5 396.85V340.13L357.17 328.8V385.51Z" fill="#00F5D7"/>
<path d="M379.84 408.19L391.18 419.53V362.8L379.84 351.48V408.19Z" fill="#00F5D7"/>
<path d="M402.52 430.86L413.86 442.2V385.48L402.52 374.15V430.86Z" fill="#00F5D7"/>
<path d="M425.2 453.54L436.54 464.88V408.15L425.2 396.83V453.54Z" fill="#00F5D7"/>
<path d="M447.87 476.21L459.21 487.55V430.83L447.87 419.5V476.21Z" fill="#00F5D7"/>
<path d="M470.55 498.89L481.89 510.23V453.5L470.55 442.17V498.89Z" fill="#00F5D7"/>
<path d="M493.23 521.56L504.57 532.9V476.18L493.23 464.85V521.56Z" fill="#00F5D7"/>
<path d="M515.91 544.24L527.24 555.58V498.85L515.91 487.52V544.24Z" fill="#00F5D7"/>
<path d="M538.58 566.91L549.92 578.25V521.53L538.58 510.2V566.91Z" fill="#00F5D7"/>
<path d="M561.26 589.59L572.6 600.93V544.2L561.26 532.87V589.59Z" fill="#00F5D7"/>
<path d="M583.94 612.26L595.28 623.6V566.88L583.94 555.54V612.26Z" fill="#00F5D7"/>
<path d="M606.61 634.94L617.95 646.28V589.55L606.61 578.22V634.94Z" fill="#00F5D7"/>
<path d="M629.29 657.61L640.63 668.95V612.23L629.29 600.89V657.61Z" fill="#00F5D7"/>
<path d="M651.97 680.29L663.31 691.63V634.9L651.97 623.57V680.29Z" fill="#00F5D7"/>
<path d="M674.65 702.96L685.98 714.3V657.58L674.65 646.24V702.96Z" fill="#00F5D7"/>
<path d="M697.32 668.91V725.64L697.35 725.67H708.66V680.25L697.32 668.91Z" fill="#00F5D7"/>
<path d="M725.67 697.26L720 691.59V725.67H725.67V697.26Z" fill="#00F5D7"/>
<path d="M720 0H725.67V28.38L720 34.05V0Z" fill="#00F5D7"/>
<path d="M697.32 56.73V0H708.66V45.39L697.32 56.73Z" fill="#00F5D7"/>
<path d="M674.65 22.6801L685.98 11.3701V68.0601L674.65 79.4001V22.6801Z" fill="#00F5D7"/>
<path d="M651.97 45.35L663.31 34.04V90.74L651.99 102.06L651.97 102.04V45.35Z" fill="#00F5D7"/>
<path d="M651.97 102.04L651.99 102.06L651.97 102.08V102.04Z" fill="#00F5D7"/>
<path d="M629.29 68.0302L640.63 56.7202V90.7502L629.29 79.3602V68.0302Z" fill="#00F5D7"/>
<path d="M629.29 79.3599L640.63 90.7499V113.41L629.29 124.75V79.3599Z" fill="#00F5D7"/>
<path d="M606.61 90.7001L617.95 79.3901V136.09L606.61 147.43V90.7001Z" fill="#00F5D7"/>
<path d="M583.94 153.03V113.38L595.28 102.06V158.76L583.94 170.1V153.03Z" fill="#00F5D7"/>
<path d="M561.26 192.78V136.05L572.6 124.74V141.73V181.44L561.26 192.78Z" fill="#00F5D7"/>
<path d="M549.92 147.41V204.11L538.58 215.45V198.43V158.73L549.92 147.41Z" fill="#00F5D7"/>
<path d="M527.24 187.04V226.79L515.91 238.13V181.4L527.24 170.09V187.04Z" fill="#00F5D7"/>
<path d="M504.57 249.46L493.23 260.8V204.08L504.57 192.76V249.46Z" fill="#00F5D7"/>
<path d="M481.89 272.14L470.55 283.48V249.41L481.89 260.8V272.14Z" fill="#00F5D7"/>
<path d="M481.89 260.8L470.55 249.41V226.75L481.89 215.43V260.8Z" fill="#00F5D7"/>
<path d="M459.21 294.81L447.87 306.15V249.43L459.2 238.12H459.21V294.81Z" fill="#00F5D7"/>
<path d="M459.21 238.12H459.2L459.21 238.11V238.12Z" fill="#00F5D7"/>
<path d="M436.54 317.49L425.2 328.83V272.1L436.54 260.78V317.49Z" fill="#00F5D7"/>
<path d="M413.86 340.16L402.52 351.5V294.78L413.86 283.45V340.16Z" fill="#00F5D7"/>
<path d="M391.18 362.84L379.84 374.18V317.45L391.18 306.13V362.84Z" fill="#00F5D7"/>
<path d="M368.5 385.51L357.17 396.85V340.13L368.5 328.8V385.51Z" fill="#00F5D7"/>
<path d="M345.83 408.19L334.49 419.53V362.8L345.83 351.48V408.19Z" fill="#00F5D7"/>
<path d="M323.15 430.86L311.81 442.2V385.48L323.15 374.15V430.86Z" fill="#00F5D7"/>
<path d="M300.47 453.54L289.13 464.88V408.15L300.47 396.83V453.54Z" fill="#00F5D7"/>
<path d="M277.8 476.21L266.46 487.55V430.83L277.8 419.5V476.21Z" fill="#00F5D7"/>
<path d="M255.12 498.89L243.78 510.23V453.5L255.12 442.17V498.89Z" fill="#00F5D7"/>
<path d="M232.44 521.56L221.1 532.9V476.18L232.44 464.85V521.56Z" fill="#00F5D7"/>
<path d="M209.76 544.24L198.43 555.58V498.85L209.76 487.52V544.24Z" fill="#00F5D7"/>
<path d="M187.09 566.91L175.75 578.25V521.53L187.09 510.2V566.91Z" fill="#00F5D7"/>
<path d="M164.41 589.59L153.07 600.93V544.2L164.41 532.87V589.59Z" fill="#00F5D7"/>
<path d="M141.73 612.26L130.39 623.6V566.88L141.73 555.54V612.26Z" fill="#00F5D7"/>
<path d="M119.06 634.94L107.72 646.28V589.55L119.06 578.22V634.94Z" fill="#00F5D7"/>
<path d="M96.38 657.61L85.04 668.95V612.23L96.38 600.89V657.61Z" fill="#00F5D7"/>
<path d="M73.7001 680.29L62.3601 691.63V634.9L73.7001 623.57V680.29Z" fill="#00F5D7"/>
<path d="M51.0199 702.96L39.6899 714.3V657.58L51.0199 646.24V702.96Z" fill="#00F5D7"/>
<path d="M28.35 668.91V725.64L28.32 725.67H17.01V680.25L28.35 668.91Z" fill="#00F5D7"/>
<path d="M0 697.26L5.67 691.59V725.67H0V697.26Z" fill="#00F5D7"/>
<path d="M5.67 725.67H0V697.29L5.67 691.62V725.67Z" fill="#00F5D7"/>
<path d="M28.35 668.95V725.67H28.34H17.01V680.28L28.35 668.95Z" fill="#00F5D7"/>
<path d="M51.0199 702.99L39.6899 714.3V657.61L51.0199 646.27V702.99Z" fill="#00F5D7"/>
<path d="M73.7001 680.32L62.3601 691.63V634.93L73.6801 623.61L73.7001 623.63V680.32Z" fill="#00F5D7"/>
<path d="M73.6999 623.63L73.6799 623.61L73.6999 623.59V623.63Z" fill="#00F5D7"/>
<path d="M96.38 657.64L85.04 668.96V634.92L96.38 646.31V657.64Z" fill="#00F5D7"/>
<path d="M96.38 646.31L85.04 634.92V612.26L96.38 600.92V646.31Z" fill="#00F5D7"/>
<path d="M119.06 634.97L107.72 646.28V589.58L119.06 578.24V634.97Z" fill="#00F5D7"/>
<path d="M141.73 572.64V612.29L130.39 623.61V566.91L141.73 555.57V572.64Z" fill="#00F5D7"/>
<path d="M164.41 532.89V589.62L153.07 600.93V583.94V544.23L164.41 532.89Z" fill="#00F5D7"/>
<path d="M175.75 578.26V521.56L187.09 510.22V527.24V566.94L175.75 578.26Z" fill="#00F5D7"/>
<path d="M198.43 538.62V498.88L209.76 487.54V544.27L198.43 555.59V538.62Z" fill="#00F5D7"/>
<path d="M221.1 476.21L232.44 464.87V521.59L221.1 532.91V476.21Z" fill="#00F5D7"/>
<path d="M243.78 453.53L255.12 442.19V476.26L243.78 464.87V453.53Z" fill="#00F5D7"/>
<path d="M243.78 464.87L255.12 476.26V498.92L243.78 510.24V464.87Z" fill="#00F5D7"/>
<path d="M266.46 430.86L277.8 419.52V476.24L266.46 487.55V430.86Z" fill="#00F5D7"/>
<path d="M289.13 408.18L300.47 396.84V453.57L289.13 464.89V408.18Z" fill="#00F5D7"/>
<path d="M311.81 385.51L323.15 374.17V430.89L311.81 442.21V385.51Z" fill="#00F5D7"/>
<path d="M334.49 362.83L345.83 351.49V408.22L334.49 419.54V362.83Z" fill="#00F5D7"/>
<path d="M357.17 340.16L368.5 328.82V385.54L357.17 396.87V340.16Z" fill="#00F5D7"/>
<path d="M379.84 317.48L391.18 306.14V362.87L379.84 374.19V317.48Z" fill="#00F5D7"/>
<path d="M402.52 294.81L413.86 283.47V340.19L402.52 351.52V294.81Z" fill="#00F5D7"/>
<path d="M425.2 272.13L436.54 260.79V317.52L425.2 328.84V272.13Z" fill="#00F5D7"/>
<path d="M447.87 249.46L459.21 238.12V294.84L447.87 306.17V249.46Z" fill="#00F5D7"/>
<path d="M470.55 226.78L481.89 215.44V272.17L470.55 283.5V226.78Z" fill="#00F5D7"/>
<path d="M493.23 204.11L504.57 192.77V249.49L493.23 260.82V204.11Z" fill="#00F5D7"/>
<path d="M515.91 181.43L527.24 170.09V226.82L515.91 238.15V181.43Z" fill="#00F5D7"/>
<path d="M538.58 158.76L549.92 147.42V204.14L538.58 215.47V158.76Z" fill="#00F5D7"/>
<path d="M561.26 136.08L572.6 124.74V181.47L561.26 192.8V136.08Z" fill="#00F5D7"/>
<path d="M583.94 113.41L595.28 102.07V158.79L583.94 170.13V113.41Z" fill="#00F5D7"/>
<path d="M606.61 90.7301L617.95 79.3901V136.12L606.61 147.45V90.7301Z" fill="#00F5D7"/>
<path d="M629.29 68.0602L640.63 56.7202V113.44L629.29 124.78V68.0602Z" fill="#00F5D7"/>
<path d="M651.97 45.38L663.31 34.04V90.77L651.97 102.1V45.38Z" fill="#00F5D7"/>
<path d="M674.65 22.7101L685.98 11.3701V68.0901L674.65 79.4301V22.7101Z" fill="#00F5D7"/>
<path d="M697.32 56.75V0.03L697.35 0H708.66V45.42L697.32 56.75Z" fill="#00F5D7"/>
<path d="M725.67 28.41L720 34.08V0H725.67V28.41Z" fill="#00F5D7"/>
<path d="M720 725.67H725.67V697.29L720 691.62V725.67Z" fill="#00F5D7"/>
<path d="M697.32 668.95V725.67H708.66V680.28L697.32 668.95Z" fill="#00F5D7"/>
<path d="M674.65 702.99L685.98 714.3V657.61L674.65 646.27V702.99Z" fill="#00F5D7"/>
<path d="M651.97 680.32L663.31 691.63V634.93L651.99 623.61L651.97 623.63V680.32Z" fill="#00F5D7"/>
<path d="M651.97 623.63L651.99 623.61L651.97 623.59V623.63Z" fill="#00F5D7"/>
<path d="M629.29 657.64L640.63 668.96V634.92L629.29 646.31V657.64Z" fill="#00F5D7"/>
<path d="M629.29 646.31L640.63 634.92V612.26L629.29 600.92V646.31Z" fill="#00F5D7"/>
<path d="M606.61 634.97L617.95 646.28V589.58L606.61 578.24V634.97Z" fill="#00F5D7"/>
<path d="M583.94 572.64V612.29L595.28 623.61V566.91L583.94 555.57V572.64Z" fill="#00F5D7"/>
<path d="M561.26 532.89V589.62L572.6 600.93V583.94V544.23L561.26 532.89Z" fill="#00F5D7"/>
<path d="M549.92 578.26V521.56L538.58 510.22V527.24V566.94L549.92 578.26Z" fill="#00F5D7"/>
<path d="M527.24 538.62V498.88L515.91 487.54V544.27L527.24 555.59V538.62Z" fill="#00F5D7"/>
<path d="M504.57 476.21L493.23 464.87V521.59L504.57 532.91V476.21Z" fill="#00F5D7"/>
<path d="M481.89 453.53L470.55 442.19V476.26L481.89 464.87V453.53Z" fill="#00F5D7"/>
<path d="M481.89 464.87L470.55 476.26V498.92L481.89 510.24V464.87Z" fill="#00F5D7"/>
<path d="M459.21 430.86L447.87 419.52V476.24L459.2 487.55H459.21V430.86Z" fill="#00F5D7"/>
<path d="M459.21 487.55H459.2L459.21 487.56V487.55Z" fill="#00F5D7"/>
<path d="M436.54 408.18L425.2 396.84V453.57L436.54 464.89V408.18Z" fill="#00F5D7"/>
<path d="M413.86 385.51L402.52 374.17V430.89L413.86 442.21V385.51Z" fill="#00F5D7"/>
<path d="M391.18 362.83L379.84 351.49V408.22L391.18 419.54V362.83Z" fill="#00F5D7"/>
<path d="M368.5 340.16L357.17 328.82V385.54L368.5 396.87V340.16Z" fill="#00F5D7"/>
<path d="M345.83 317.48L334.49 306.14V362.87L345.83 374.19V317.48Z" fill="#00F5D7"/>
<path d="M323.15 294.81L311.81 283.47V340.19L323.15 351.52V294.81Z" fill="#00F5D7"/>
<path d="M300.47 272.13L289.13 260.79V317.52L300.47 328.84V272.13Z" fill="#00F5D7"/>
<path d="M277.8 249.46L266.46 238.12V294.84L277.8 306.17V249.46Z" fill="#00F5D7"/>
<path d="M255.12 226.78L243.78 215.44V272.17L255.12 283.5V226.78Z" fill="#00F5D7"/>
<path d="M232.44 204.11L221.1 192.77V249.49L232.44 260.82V204.11Z" fill="#00F5D7"/>
<path d="M209.76 181.43L198.43 170.09V226.82L209.76 238.15V181.43Z" fill="#00F5D7"/>
<path d="M187.09 158.76L175.75 147.42V204.14L187.09 215.47V158.76Z" fill="#00F5D7"/>
<path d="M164.41 136.08L153.07 124.74V181.47L164.41 192.8V136.08Z" fill="#00F5D7"/>
<path d="M141.73 113.41L130.39 102.07V158.79L141.73 170.13V113.41Z" fill="#00F5D7"/>
<path d="M119.06 90.7301L107.72 79.3901V136.12L119.06 147.45V90.7301Z" fill="#00F5D7"/>
<path d="M96.38 68.0602L85.04 56.7202V113.44L96.38 124.78V68.0602Z" fill="#00F5D7"/>
<path d="M73.7001 45.38L62.3601 34.04V90.77L73.7001 102.1V45.38Z" fill="#00F5D7"/>
<path d="M51.0199 22.7101L39.6899 11.3701V68.0901L51.0199 79.4301V22.7101Z" fill="#00F5D7"/>
<path d="M28.35 56.75V0.03L28.32 0H17.01V45.42L28.35 56.75Z" fill="#00F5D7"/>
<path d="M0 28.41L5.67 34.08V0H0V28.41Z" fill="#00F5D7"/>
<path d="M5.66992 436.58V345.85L17.0099 357.21V447.89L5.66992 436.58Z" fill="#D13378"/>
<path d="M28.3501 459.25V368.52L39.6901 379.88V470.57L28.3501 459.25Z" fill="#D13378"/>
<path d="M51.02 481.93V391.19L62.36 402.56V493.24L51.02 481.93Z" fill="#D13378"/>
<path d="M73.7 504.61V413.87L85.04 425.24V515.92L73.7 504.61Z" fill="#D13378"/>
<path d="M96.3799 527.29V436.54L107.72 447.92V538.59L96.3799 527.29Z" fill="#D13378"/>
<path d="M119.06 549.96V459.22L130.39 470.59V561.26L119.06 549.96Z" fill="#D13378"/>
<path d="M153.07 583.94L141.73 572.64V555.57V481.89L153.07 493.27V544.23V583.94Z" fill="#D13378"/>
<path d="M175.75 578.26V606.61L164.41 595.32V589.62V532.89V504.57L175.75 515.95V521.56V578.26Z" fill="#D13378"/>
<path d="M198.43 629.29L187.09 617.99V566.94V527.24L198.43 538.62V555.59V629.29Z" fill="#D13378"/>
<path d="M209.76 640.67V549.92L221.1 561.3V651.96L209.76 640.67Z" fill="#D13378"/>
<path d="M232.44 663.35V572.59L243.78 583.98V674.64L232.44 663.35Z" fill="#D13378"/>
<path d="M255.12 686.03V595.26L266.46 606.66V697.31L255.12 686.03Z" fill="#D13378"/>
<path d="M277.8 708.7V617.94L289.13 629.33V719.99L277.8 708.7Z" fill="#D13378"/>
<path d="M300.47 725.67V640.61L311.81 652.01V725.67H300.47Z" fill="#D13378"/>
<path d="M323.15 725.67V663.29L334.49 674.69V725.67H323.15Z" fill="#D13378"/>
<path d="M345.83 725.67V685.96L357.17 697.36V725.67H345.83Z" fill="#D13378"/>
<path d="M368.5 725.67V708.64L379.84 720.04V725.67H368.5Z" fill="#D13378"/>
<path d="M5.66992 289.09V379.82L17.0099 368.46V277.78L5.66992 289.09Z" fill="#D13378"/>
<path d="M28.3501 266.42V357.15L39.6901 345.79V255.1L28.3501 266.42Z" fill="#D13378"/>
<path d="M51.02 243.74V334.48L62.36 323.11V232.43L51.02 243.74Z" fill="#D13378"/>
<path d="M73.7 221.06V311.8L85.04 300.43V209.75L73.7 221.06Z" fill="#D13378"/>
<path d="M96.3799 198.38V289.13L107.72 277.75V187.08L96.3799 198.38Z" fill="#D13378"/>
<path d="M119.06 175.71V266.45L130.39 255.08V164.4L119.06 175.71Z" fill="#D13378"/>
<path d="M153.07 141.73L141.73 153.03V170.1V243.78L153.07 232.4V181.44V141.73Z" fill="#D13378"/>
<path d="M175.75 147.41V119.06L164.41 130.35V136.05V192.78V221.1L175.75 209.72V204.11V147.41Z" fill="#D13378"/>
<path d="M198.43 96.3799L187.09 107.67V158.73V198.43L198.43 187.04V170.09V96.3799Z" fill="#D13378"/>
<path d="M209.76 85V175.75L221.1 164.37V73.71L209.76 85Z" fill="#D13378"/>
<path d="M232.44 62.3198V153.08L243.78 141.69V51.0298L232.44 62.3198Z" fill="#D13378"/>
<path d="M255.12 39.6399V130.4L266.46 119.01V28.3599L255.12 39.6399Z" fill="#D13378"/>
<path d="M277.8 16.9702V107.73L289.13 96.3402V5.68018L277.8 16.9702Z" fill="#D13378"/>
<path d="M300.47 0V85.06L311.81 73.66V0H300.47Z" fill="#D13378"/>
<path d="M323.15 0V62.38L334.49 50.98V0H323.15Z" fill="#D13378"/>
<path d="M345.83 0V39.71L357.17 28.3V0H345.83Z" fill="#D13378"/>
<path d="M368.5 0V17.03L379.84 5.63V0H368.5Z" fill="#D13378"/>
<path d="M720 436.58V345.85L708.66 357.21V447.89L720 436.58Z" fill="#D13378"/>
<path d="M697.32 459.25V368.52L685.98 379.88V470.57L697.32 459.25Z" fill="#D13378"/>
<path d="M674.65 481.93V391.19L663.31 402.56V493.24L674.65 481.93Z" fill="#D13378"/>
<path d="M651.97 504.61V413.87L640.63 425.24V515.92L651.97 504.61Z" fill="#D13378"/>
<path d="M629.29 527.29V436.54L617.95 447.92V538.59L629.29 527.29Z" fill="#D13378"/>
<path d="M606.61 549.96V459.22L595.28 470.59V561.26L606.61 549.96Z" fill="#D13378"/>
<path d="M572.6 583.94L583.94 572.64V555.57V481.89L572.6 493.27V544.23V583.94Z" fill="#D13378"/>
<path d="M549.92 578.26V606.61L561.26 595.32V589.62V532.89V504.57L549.92 515.95V521.56V578.26Z" fill="#D13378"/>
<path d="M527.24 629.29L538.58 617.99V566.94V527.24L527.24 538.62V555.59V629.29Z" fill="#D13378"/>
<path d="M515.91 640.67V549.92L504.57 561.3V651.96L515.91 640.67Z" fill="#D13378"/>
<path d="M493.23 663.35V572.59L481.89 583.98V674.64L493.23 663.35Z" fill="#D13378"/>
<path d="M470.55 686.03V595.26L459.21 606.66V697.31L470.55 686.03Z" fill="#D13378"/>
<path d="M447.87 708.7V617.94L436.54 629.33V719.99L447.87 708.7Z" fill="#D13378"/>
<path d="M425.2 725.67V640.61L413.86 652.01V725.67H425.2Z" fill="#D13378"/>
<path d="M402.52 725.67V663.29L391.18 674.69V725.67H402.52Z" fill="#D13378"/>
<path d="M379.84 725.67V685.96L368.5 697.36V725.67H379.84Z" fill="#D13378"/>
<path d="M357.17 725.67V708.64L345.83 720.04V725.67H357.17Z" fill="#D13378"/>
<path d="M720 289.09V379.82L708.66 368.46V277.78L720 289.09Z" fill="#D13378"/>
<path d="M697.32 266.42V357.15L685.98 345.79V255.1L697.32 266.42Z" fill="#D13378"/>
<path d="M674.65 243.74V334.48L663.31 323.11V232.43L674.65 243.74Z" fill="#D13378"/>
<path d="M651.97 221.06V311.8L640.63 300.43V209.75L651.97 221.06Z" fill="#D13378"/>
<path d="M629.29 198.38V289.13L617.95 277.75V187.08L629.29 198.38Z" fill="#D13378"/>
<path d="M606.61 175.71V266.45L595.28 255.08V164.4L606.61 175.71Z" fill="#D13378"/>
<path d="M572.6 141.73L583.94 153.03V170.1V243.78L572.6 232.4V181.44V141.73Z" fill="#D13378"/>
<path d="M549.92 147.41V119.06L561.26 130.35V136.05V192.78V221.1L549.92 209.72V204.11V147.41Z" fill="#D13378"/>
<path d="M527.24 96.3799L538.58 107.67V158.73V198.43L527.24 187.04V170.09V96.3799Z" fill="#D13378"/>
<path d="M515.9 85V175.75L504.57 164.37V73.71L515.9 85Z" fill="#D13378"/>
<path d="M493.23 62.3198V153.08L481.89 141.69V51.0298L493.23 62.3198Z" fill="#D13378"/>
<path d="M470.55 39.6399V130.4L459.21 119.01V28.3599L470.55 39.6399Z" fill="#D13378"/>
<path d="M447.87 16.9702V107.73L436.54 96.3402V5.68018L447.87 16.9702Z" fill="#D13378"/>
<path d="M425.2 0V85.06L413.86 73.66V0H425.2Z" fill="#D13378"/>
<path d="M402.52 0V62.38L391.18 50.98V0H402.52Z" fill="#D13378"/>
<path d="M379.84 0V39.71L368.5 28.3V0H379.84Z" fill="#D13378"/>
<path d="M357.17 0V17.03L345.83 5.63V0H357.17Z" fill="#D13378"/>
</g>
<defs>
<clipPath id="clip0_1034_3058">
<rect width="725.67" height="725.67" fill="white"/>
</clipPath>
</defs>
</svg>
